<svg xmlns="http://www.w3.org/2000/svg" width="150" height="150">
    <path fill="#E3D5B8" fill-rule="evenodd" d="M75 150c-41.418 0-75-33.579-75-75S33.582 0 75 0c41.419 0 75 33.579 75 75s-33.581 75-75 75zm6.25-137.185v5.935c0 3.451-2.796 6.25-6.25 6.25s-6.25-2.799-6.25-6.25v-5.935C39.228 15.747 15.747 39.224 12.817 68.75h5.933c3.455 0 6.25 2.795 6.25 6.25 0 3.454-2.795 6.25-6.25 6.25h-5.933c2.93 29.526 26.411 53.004 55.933 55.936v-5.936c0-3.454 2.796-6.25 6.25-6.25s6.25 2.796 6.25 6.25v5.936c29.523-2.932 53.003-26.41 55.933-55.936h-5.933c-3.454 0-6.25-2.796-6.25-6.25 0-3.455 2.796-6.25 6.25-6.25h5.933c-2.93-29.526-26.41-53.003-55.933-55.935zM61.743 88.258L35.23 79.413l70.709-35.358-35.357 70.716-8.839-26.513zm30.219-30.226L51.514 78.26l12.207 4.064 2.966.99.982 2.966 4.072 12.2 20.221-40.448z"/>
</svg>
