<svg xmlns="http://www.w3.org/2000/svg" width="163" height="143">
    <path fill="#E3D5B8" fill-rule="evenodd" d="M149.85 75.228l-67.902 66.797-67.897-66.797c-17.503-17.217-17.503-45.122 0-62.339 17.496-17.211 45.87-17.211 63.372 0 1.684 1.663 3.164 3.45 4.525 5.289 1.366-1.839 2.84-3.626 4.53-5.289 17.503-17.211 45.869-17.211 63.372 0 17.496 17.217 17.496 45.122 0 62.339zm-9.055-53.432c-12.496-12.293-32.766-12.293-45.269 0L81.948 35.154S71.36 24.733 68.368 21.796c-12.496-12.293-32.759-12.293-45.268 0-12.497 12.305-12.497 32.233 0 44.532 3.229 3.169 58.848 57.888 58.848 57.888s55.624-54.719 58.847-57.888c12.496-12.299 12.496-32.227 0-44.532zm-15.507 34.163c2.45-2.405 3.962-5.732 3.962-9.408 0-7.349-6.056-13.306-13.527-13.306v-6.654c11.203 0 20.29 8.94 20.29 19.96 0 5.509-2.272 10.498-5.944 14.111l-4.781-4.703z"/>
</svg>
