<svg xmlns="http://www.w3.org/2000/svg" width="137" height="137">
    <path fill="#E3D5B8" fill-rule="evenodd" d="M84.63 68.489l11.042-11.042c10.238 4.008 22.311 1.907 30.582-6.364l4.035-4.036c8.918-8.918 8.918-23.376 0-32.288l-4.035 4.035-16.141 16.142c-2.23 2.235-5.841 2.235-8.071 0-2.235-2.23-2.235-5.842 0-8.071l16.141-16.141 4.036-4.036c-8.913-8.917-23.37-8.917-32.288 0l-4.036 4.036c-8.271 8.271-10.372 20.344-6.364 30.582L64.454 56.383 10.891 2.82 0 0l2.82 10.891 53.563 53.562-51.2 51.2c-4.458 4.459-4.458 11.682 0 16.141 4.46 4.459 11.683 4.459 16.142 0L68.489 84.63l49.003 49.004c4.46 4.459 11.683 4.459 16.142 0s4.459-11.683 0-16.142L84.63 68.489zm5.301-53.73l4.04-4.035c5.262-5.267 13.077-6.321 19.436-3.294l-15.4 15.399c-4.459 4.459-4.459 11.688 0 16.142 4.453 4.459 11.683 4.459 16.141 0l15.4-15.401c3.026 6.361 1.973 14.174-3.294 19.442l-4.035 4.035c-8.913 8.913-23.37 8.913-32.288 0-8.913-8.918-8.913-23.376 0-32.288zM82.267 46.64c1.042 1.567 2.246 3.054 3.628 4.443 1.388 1.382 2.877 2.586 4.443 3.628L76.56 68.489l-8.071-8.071L82.267 46.64zm-64.978 81.118c-2.229 2.23-5.841 2.23-8.07 0-2.23-2.229-2.23-5.84 0-8.069l8.07-8.071 8.071 8.071-8.071 8.069zm4.036-20.175l39.093-39.094 8.071 8.071-39.094 39.093-8.07-8.07zm51.773-26.414l8.071-8.07 36.323 36.322-8.07 8.071-36.324-36.323zm56.5 48.43c-2.229 2.229-5.841 2.229-8.07 0l-8.071-8.072 8.071-8.07 8.07 8.07c2.23 2.23 2.23 5.842 0 8.072z"/>
</svg>
