<svg xmlns="http://www.w3.org/2000/svg" width="116" height="155">
    <path fill="#E3D5B8" fill-rule="evenodd" d="M112.627 77.5l-15.96 32.292c-1.347 2.705-3.7 5.297-6.52 6.105.012.12.075.228.075.353v6.458c0 3.57-2.882 6.459-6.444 6.459v6.458c0 3.57-2.882 6.458-6.445 6.458v6.459c0 3.57-2.882 6.458-6.444 6.458H45.111c-3.561 0-6.444-2.888-6.444-6.458v-6.459c-3.562 0-6.445-2.888-6.445-6.458v-6.458c-3.562 0-6.444-2.889-6.444-6.459v-6.458c0-.114.057-.207.063-.315-2.757-.732-4.789-3.305-6.507-6.143L3.373 77.5C1.227 71.433 0 64.931 0 58.125 0 26.023 25.967 0 58 0c32.034 0 58 26.023 58 58.125 0 6.806-1.227 13.308-3.373 19.375zm-67.516 71.042h25.778v-6.459H45.111v6.459zm-6.444-12.917H77.333v-6.458H38.667v6.458zm-6.445-12.917h51.556v-6.458H32.222v6.458zM58 12.917c-24.915 0-45.111 20.232-45.111 45.208 0 6.944 1.611 13.497 4.399 19.375l13.059 25.833h55.445L98.712 77.5c2.788-5.878 4.399-12.431 4.399-19.375 0-24.976-20.195-45.208-45.111-45.208zm0 12.916v-6.458c21.354 0 38.667 17.351 38.667 38.75h-6.445c0-17.835-14.424-32.292-32.222-32.292z"/>
</svg>
